<?xml version="1.0" encoding="UTF-8" standalone="no"?>
<svg
   xmlns:dc="http://purl.org/dc/elements/1.1/"
   xmlns:cc="http://creativecommons.org/ns#"
   xmlns:rdf="http://www.w3.org/1999/02/22-rdf-syntax-ns#"
   xmlns:svg="http://www.w3.org/2000/svg"
   xmlns="http://www.w3.org/2000/svg"
   id="svg15"
   version="1.1"
   viewBox="0 0 20 20"
   height="20px"
   width="20px">
  <metadata
     id="metadata19">
    <rdf:RDF>
      <cc:Work
         rdf:about="">
        <dc:format>image/svg+xml</dc:format>
        <dc:type
           rdf:resource="http://purl.org/dc/dcmitype/StillImage" />
        <dc:title>Large Stage (active)</dc:title>
      </cc:Work>
    </rdf:RDF>
  </metadata>
  <!-- Generator: Sketch 47.1 (45422) - http://www.bohemiancoding.com/sketch -->
  <title
     id="title2">Large Stage (active)</title>
  <desc
     id="desc4">Created with Sketch.</desc>
  <defs
     id="defs6" />
  <g
     transform="translate(3,4)"
     id="large-stage-(inactive)"
     style="fill:none;fill-rule:evenodd;stroke:#4c97ff;stroke-width:1;stroke-linecap:round;stroke-linejoin:round">
    <path
       id="Rectangle"
       d="M 1,0 H 7 V 12 H 1 v 0 C 0.44771525,12 0,11.552285 0,11 V 1 1 C 0,0.44771525 0.44771525,0 1,0 Z" />
    <path
       style="fill:#4c97ff;stroke-width:1.75984406"
       id="path9"
       d="M 1.0454486,1.3174291 H 11.207283 l 1.092573,-0.37930382 c 0.935371,0 0.601066,0.60173762 0.601066,1.61166662 V 10.917775 H 1.0454486 Z" />
    <path
       id="Rectangle-Copy"
       d="m 7,5 h 7 v 6 0 c 0,0.552285 -0.447715,1 -1,1 H 7 Z" />
    <path
       id="Rectangle-Copy-9"
       d="m 7,7 h 7 V 1 1 C 14,0.447715 13.552285,0 13,0 H 7 Z"
       style="fill:none;fill-rule:evenodd;stroke:#4c97ff;stroke-width:1;stroke-linecap:round;stroke-linejoin:round" />
  </g>
</svg>
