<?xml version="1.0" encoding="UTF-8" standalone="no"?>
<svg
   xmlns:dc="http://purl.org/dc/elements/1.1/"
   xmlns:cc="http://creativecommons.org/ns#"
   xmlns:rdf="http://www.w3.org/1999/02/22-rdf-syntax-ns#"
   xmlns:svg="http://www.w3.org/2000/svg"
   xmlns="http://www.w3.org/2000/svg"
   id="svg8"
   version="1.1"
   viewBox="0 0 5.2916669 5.2916667"
   height="20"
   width="20">
  <defs
     id="defs2">
    <clipPath
       clipPathUnits="userSpaceOnUse"
       id="clipPath4520">
      <path
         d="M 16,16 H 595 V 707 H 16 Z"
         id="path4518" />
    </clipPath>
    <clipPath
       clipPathUnits="userSpaceOnUse"
       id="clipPath4626">
      <path
         d="M 16,16 H 595 V 707 H 16 Z"
         id="path4624" />
    </clipPath>
  </defs>
  <metadata
     id="metadata5">
    <rdf:RDF>
      <cc:Work
         rdf:about="">
        <dc:format>image/svg+xml</dc:format>
        <dc:type
           rdf:resource="http://purl.org/dc/dcmitype/StillImage" />
        <dc:title></dc:title>
      </cc:Work>
    </rdf:RDF>
  </metadata>
  <g
     transform="translate(-402.87609,-327.28699)"
     id="layer1">
    <g
       id="g4512"
       transform="matrix(0.35277777,0,0,-0.35277777,228.6252,432.0893)">
      <g
         id="g4620">
        <g
           id="g4622"
           clip-path="url(#clipPath4626)">
          <g
             id="g4628"
             transform="scale(0.12)" />
        </g>
      </g>
      <g
         transform="matrix(0.09084365,0,0,0.09084365,452.15041,256.7372)"
         id="g34">
        <path
           style="opacity:1;vector-effect:none;fill:#14a6ff;fill-opacity:1;stroke:none;stroke-width:0.30840817;stroke-linecap:round;stroke-linejoin:miter;stroke-miterlimit:4;stroke-dasharray:none;stroke-dashoffset:0;stroke-opacity:1;marker:none"
           d="m 546.22738,382.89378 c -1.16362,0 -2.31382,-0.0555 -3.45697,-0.1362 l 9.53317,-36.84375 c 1.16438,-4.4994 -1.0242,-9.19253 -5.21925,-11.19285 -4.83892,-2.30738 -10.63155,-0.25658 -12.93892,4.58197 l -16.38285,34.35795 c -12.1566,-8.82015 -20.0697,-23.1321 -20.06985,-39.3003 v -46.59225 c 0,-1.07175 0.8703,-1.94093 1.94242,-1.94093 h 46.59083 c 26.80485,0 48.53467,21.72886 48.53467,48.53318 0,26.80433 -21.72885,48.53318 -48.53325,48.53318 z m 8.29838,-57.74708 c 7.50525,0 13.58932,-6.08407 13.58932,-13.58932 0,-7.50525 -6.08407,-13.58933 -13.58932,-13.58933 -7.50525,0 -13.58925,6.08408 -13.58933,13.58933 -1.5e-4,7.50525 6.08408,13.58932 13.58933,13.58932 z"
           id="path4590" />
        <path
           style="opacity:1;vector-effect:none;fill:#14a6ff;fill-opacity:1;stroke:none;stroke-width:0.30840817;stroke-linecap:round;stroke-linejoin:miter;stroke-miterlimit:4;stroke-dasharray:none;stroke-dashoffset:0;stroke-opacity:1;marker:none"
           d="m 515.15368,437.17795 c -1.44112,0 -2.90557,-0.1833 -4.36522,-0.561 -9.34193,-2.4171 -14.9547,-11.9496 -12.5376,-21.29152 0.27997,-1.0821 0.66202,-2.136 1.14255,-3.14498 l 18.36915,-38.51955 c 7.1226,5.16773 15.70185,8.44103 25.00785,9.09668 l -10.69043,41.32035 c -2.03917,7.88235 -9.1443,13.1106 -16.9263,13.10002 z"
           id="path4933" />
      </g>
    </g>
  </g>
</svg>
